<svg width="512" height="411" viewBox="0 0 512 411" fill="none" xmlns="http://www.w3.org/2000/svg">
<path d="M0 26.5C0 11.8645 11.8645 0 26.5 0H485.5C500.136 0 512 11.8645 512 26.5V26.5C512 41.1355 500.136 53 485.5 53H26.5C11.8645 53 0 41.1355 0 26.5V26.5Z" fill="#020202"/>
<path d="M0 205.5C0 190.864 11.8645 179 26.5 179H399.5C414.136 179 426 190.864 426 205.5V205.5C426 220.136 414.136 232 399.5 232H26.5C11.8645 232 0 220.136 0 205.5V205.5Z" fill="#020202"/>
<path d="M0 384.5C0 369.864 11.8645 358 26.5 358H485.5C500.136 358 512 369.864 512 384.5V384.5C512 399.136 500.136 411 485.5 411H26.5C11.8645 411 0 399.136 0 384.5V384.5Z" fill="#020202"/>
</svg>
